<svg width="88" height="12" viewBox="0 0 88 12" fill="none" xmlns="http://www.w3.org/2000/svg">
<path d="M0 6C0 2.68629 2.68629 0 6 0H26C29.3137 0 32 2.68629 32 6C32 9.31371 29.3137 12 26 12H6C2.68629 12 0 9.31371 0 6Z" fill="#8B32FF"/>
<path d="M44 6C44 2.68629 46.6863 0 50 0H54C57.3137 0 60 2.68629 60 6C60 9.31371 57.3137 12 54 12H50C46.6863 12 44 9.31371 44 6Z" fill="#D5D7DA"/>
<path d="M72 6C72 2.68629 74.6863 0 78 0H82C85.3137 0 88 2.68629 88 6C88 9.31371 85.3137 12 82 12H78C74.6863 12 72 9.31371 72 6Z" fill="#D5D7DA"/>
</svg>
