<svg width="20" height="20" viewBox="0 0 20 20" fill="none" xmlns="http://www.w3.org/2000/svg">
<path d="M8.74961 11.2501L17.4996 2.50014M8.85593 11.5235L11.046 17.1552C11.239 17.6513 11.3354 17.8994 11.4744 17.9718C11.5949 18.0346 11.7385 18.0347 11.859 17.972C11.9981 17.8998 12.0949 17.6518 12.2884 17.1559L17.7804 3.08281C17.9551 2.63516 18.0424 2.41133 17.9946 2.26831C17.9531 2.1441 17.8557 2.04663 17.7314 2.00514C17.5884 1.95736 17.3646 2.0447 16.9169 2.21939L2.84383 7.71134C2.34793 7.90486 2.09998 8.00163 2.02772 8.14071C1.96508 8.26129 1.96517 8.40483 2.02795 8.52533C2.10037 8.66433 2.34843 8.7608 2.84455 8.95373L8.47622 11.1438C8.57693 11.183 8.62728 11.2026 8.66969 11.2328C8.70727 11.2596 8.74013 11.2925 8.76694 11.3301C8.79718 11.3725 8.81677 11.4228 8.85593 11.5235Z" stroke="#FDFDFD" stroke-width="2" stroke-linecap="round" stroke-linejoin="round"/>
</svg>
