<svg width="48" height="53" viewBox="0 0 48 53" fill="none" xmlns="http://www.w3.org/2000/svg">
<path d="M47.506 26.8546C42.4375 28.1236 36.1697 29.9695 32.4035 33.6882C27.8152 38.2194 26.1282 45.1218 24.6298 52.002C24.4865 52.6648 23.5537 52.6672 23.4079 52.002C22.1986 46.4865 20.6399 39.864 17.3664 35.7697C13.203 30.561 6.78944 28.4305 0.494029 26.8546C-0.164676 26.6901 -0.164676 25.8114 0.494029 25.6469C6 24.2699 12.3105 22.4412 16.2502 18.2119C20.3558 13.8035 22.005 6.89376 23.4079 0.497057C23.5537 -0.165686 24.4865 -0.165686 24.6298 0.497057C25.9397 6.50593 28.1722 13.3322 31.8957 17.6155C35.9384 22.267 41.653 24.1791 47.506 25.6445C48.1647 25.8089 48.1647 26.6877 47.506 26.8522V26.8546Z" fill="#F3993F"/>
</svg>
