<svg width="24" height="25" viewBox="0 0 24 25" fill="none" xmlns="http://www.w3.org/2000/svg">
<path d="M11.5609 17.7L7.41088 20.2C7.22754 20.3167 7.03588 20.3667 6.83588 20.35C6.63588 20.3333 6.46088 20.2667 6.31088 20.15C6.16088 20.0333 6.04421 19.8877 5.96088 19.713C5.87754 19.5383 5.86088 19.3423 5.91088 19.125L7.01088 14.4L3.33588 11.225C3.16921 11.075 3.06521 10.904 3.02388 10.712C2.98254 10.52 2.99488 10.3327 3.06088 10.15C3.12688 9.96733 3.22688 9.81733 3.36088 9.7C3.49488 9.58267 3.67821 9.50767 3.91088 9.475L8.76088 9.05L10.6359 4.6C10.7192 4.4 10.8485 4.25 11.0239 4.15C11.1992 4.05 11.3782 4 11.5609 4C11.7435 4 11.9225 4.05 12.0979 4.15C12.2732 4.25 12.4025 4.4 12.4859 4.6L14.3609 9.05L19.2109 9.475C19.4442 9.50833 19.6275 9.58333 19.7609 9.7C19.8942 9.81667 19.9942 9.96667 20.0609 10.15C20.1275 10.3333 20.1402 10.521 20.0989 10.713C20.0575 10.905 19.9532 11.0757 19.7859 11.225L16.1109 14.4L17.2109 19.125C17.2609 19.3417 17.2442 19.5377 17.1609 19.713C17.0775 19.8883 16.9609 20.034 16.8109 20.15C16.6609 20.266 16.4859 20.3327 16.2859 20.35C16.0859 20.3673 15.8942 20.3173 15.7109 20.2L11.5609 17.7Z" fill="#F3993F"/>
</svg>
